HIERARCHY
ROOT hip
{
	OFFSET 0.000000 0.000000 0.000000 
	CHANNELS 6 Xposition Yposition Zposition Xrotation Zrotation Yrotation
	JOINT abdomen
	{
		OFFSET 0.000000 3.402643 0.000000 
		CHANNELS 3 Xrotation Zrotation Yrotation
		JOINT chest
		{
			OFFSET 0.000000 8.438565 -0.680529 
			CHANNELS 3 Xrotation Zrotation Yrotation
			JOINT neck
			{
				OFFSET 0.000000 10.207942 -0.272212 
				CHANNELS 3 Xrotation Zrotation Yrotation
				JOINT head
				{
					OFFSET 0.000000 3.130431 0.000000 
					CHANNELS 3 Xrotation Zrotation Yrotation
					End Site
					{
						OFFSET 0.000000 3.130435 0.000000 
					}
				}
			}
			JOINT lCollar
			{
				OFFSET 3.470700 6.669187 -0.816635 
				CHANNELS 3 Yrotation Zrotation Xrotation
				JOINT lShldr
				{
					OFFSET 3.198488 0.000000 0.000000 
					CHANNELS 3 Zrotation Yrotation Xrotation
					JOINT lForeArm
					{
						OFFSET 10.139888 0.000000 0.000000 
						CHANNELS 3 Yrotation Zrotation Xrotation
						JOINT lHand
						{
							OFFSET 8.370511 0.000000 0.000000 
							CHANNELS 3 Zrotation Yrotation Xrotation
							End Site
							{
								OFFSET 4.083176 0.000000 0.000000 
							}
						}
					}
				}
			}
			JOINT rCollar
			{
				OFFSET -3.470700 6.669187 -0.816635 
				CHANNELS 3 Yrotation Zrotation Xrotation
				JOINT rShldr
				{
					OFFSET -3.198488 0.000000 0.000000 
					CHANNELS 3 Zrotation Yrotation Xrotation
					JOINT rForeArm
					{
						OFFSET -10.139888 0.000000 0.000000 
						CHANNELS 3 Yrotation Zrotation Xrotation
						JOINT rHand
						{
							OFFSET -8.370511 0.000000 0.000000 
							CHANNELS 3 Zrotation Yrotation Xrotation
							End Site
							{
								OFFSET -4.083176 0.000000 0.000000 
							}
						}
					}
				}
			}
		}
	}
	JOINT lThigh
	{
		OFFSET 5.308129 -1.633274 1.361059 
		CHANNELS 3 Xrotation Zrotation Yrotation
		JOINT lShin
		{
			OFFSET -2.041588 -20.007561 0.000000 
			CHANNELS 3 Xrotation Zrotation Yrotation
			JOINT lFoot
			{
				OFFSET 0.000000 -19.190928 -1.224953 
				CHANNELS 3 Xrotation Yrotation Zrotation
				End Site
				{
					OFFSET 0.000000 -2.449906 4.627600 
				}
			}
		}
	}
	JOINT rThigh
	{
		OFFSET -5.308129 -1.633274 1.361059 
		CHANNELS 3 Xrotation Zrotation Yrotation
		JOINT rShin
		{
			OFFSET 2.041588 -20.007561 0.000000 
			CHANNELS 3 Xrotation Zrotation Yrotation
			JOINT rFoot
			{
				OFFSET 0.000000 -19.190928 -1.224953 
				CHANNELS 3 Xrotation Yrotation Zrotation
				End Site
				{
					OFFSET 0.000000 -2.449906 4.627600 
				}
			}
		}
	}
}
MOTION
Frames: 9
Frame Time: 0.016667
0.105094 53.463238 0.173047 -4.238281 3.496094 -137.900391 19.459301 -0.488902 2.645652 -13.139039 0.453620 -0.159183 50.890343 10.202230 3.118771 -83.461479 -6.849561 9.590001 11.783575 -25.000000 13.959231 -9.669503 29.154911 -13.349033 -76.754898 -0.403083 -2.515589 -11.723681 47.846001 -7.336936 -11.335370 25.000000 13.090145 14.705858 -15.432978 -12.904546 89.964569 -0.181692 -3.136640 -45.389736 -81.290001 48.760715 -4.482900 12.577479 31.427076 2.587501 -5.313160 -0.512290 8.400459 1.590474 -5.126793 -7.337957 -1.296121 -12.261225 5.241422 5.749404 0.260796 4.104741 -12.567305 1.944877 
0.229802 53.387325 0.336091 -3.525390 2.978516 -137.118622 19.985922 -0.426707 2.470845 -13.122345 -0.767008 -0.647792 50.890343 10.202230 3.118771 -83.383186 -5.490132 9.273819 11.001390 -25.000000 13.255712 -8.975904 27.849094 -13.124439 -76.406471 -0.230323 -2.579244 -9.679845 47.495079 -5.834237 -10.868263 25.000000 12.650354 13.926470 -15.353485 -13.162471 90.140594 -0.178830 -3.127715 -51.791107 -82.090073 54.849915 -5.079173 12.745751 30.837980 3.993602 -5.305446 -0.640419 7.891192 1.028675 -4.860055 -6.998827 -1.424573 -12.762176 5.778997 5.595455 0.322693 3.704923 -13.048777 2.274675 
0.264913 53.345142 0.421650 -3.007813 2.626953 -136.201172 20.346373 -0.358587 2.308514 -12.943527 -1.293339 -1.070985 50.890343 10.202230 3.118771 -83.020592 -4.504555 9.121559 10.498074 -25.000000 12.886720 -8.977214 26.715042 -13.023417 -76.226830 -0.393327 -2.518050 -8.292073 47.132813 -4.911498 -10.658803 25.000000 12.468691 13.690073 -15.378449 -12.974061 90.317558 -0.400790 -2.767280 -55.578625 -82.290512 58.546696 -5.049400 12.849286 30.471148 5.058602 -5.267987 -0.749501 7.511655 0.419820 -4.620503 -6.599485 -1.385635 -13.307904 6.306339 5.222435 0.491222 2.977363 -13.414329 2.668730 
0.220400 53.328266 0.396976 -2.646484 2.275391 -135.458588 20.343985 -0.075143 2.036243 -12.944535 -1.117561 -1.051440 50.890343 10.202230 3.118771 -82.283630 -4.318637 9.231820 10.016129 -25.000000 12.509152 -9.322775 25.999918 -13.153013 -76.223564 -0.569349 -2.459388 -7.828396 46.622036 -4.744887 -10.530403 25.000000 12.349229 13.091922 -15.334485 -12.865617 90.143837 -0.345101 -2.971543 -54.135162 -82.558029 57.085152 -4.893566 13.049462 30.114946 5.575820 -5.258395 -0.811253 7.173767 0.426099 -4.377531 -6.185412 -1.227407 -12.951549 6.645750 5.230886 0.227756 2.699712 -13.700856 2.568533 
0.087901 53.328266 0.311097 -2.304688 2.089844 -135.097305 19.979876 0.042675 1.705032 -12.770761 -0.764991 -1.005792 50.890343 10.202230 3.118771 -81.579086 -4.443139 9.705332 9.856765 -25.000000 12.505319 -9.856810 25.345387 -12.787792 -76.758499 -0.236820 -2.574327 -8.140710 46.449375 -4.673122 -10.530403 25.000000 12.349229 12.978467 -15.171148 -12.795250 90.137733 -0.002801 -3.108144 -54.958164 -82.632706 57.243595 -4.385473 13.113047 29.649673 5.224638 -5.297549 -0.744746 7.163573 0.366879 -4.395912 -5.583007 -1.707210 -13.643572 6.643713 5.550955 0.562175 2.527909 -13.470367 3.119850 
-0.055421 53.353573 0.161438 -2.304688 2.089844 -134.921524 19.446804 0.998159 0.562686 -12.773759 -0.247422 -0.937312 50.890343 10.202230 3.118771 -80.738487 -4.733011 10.081138 9.816846 -25.000000 12.455700 -10.631852 24.695433 -12.871490 -77.467957 -0.132255 -2.300686 -9.712057 46.087948 -6.105630 -10.530403 25.000000 12.349229 12.678974 -14.953545 -12.565279 90.140594 -0.178830 -3.127715 -55.915607 -82.592171 57.897213 -3.701548 12.988317 30.080030 4.342645 -5.316785 -0.670272 7.498487 0.151767 -4.498713 -5.302297 -1.484354 -14.152881 6.297596 5.233008 0.490786 2.283958 -13.462402 2.659591 
-0.160020 53.370445 0.036049 -2.470703 2.275407 -134.931473 19.446804 0.998159 0.562686 -12.610842 0.280879 -0.881737 50.890343 10.202230 3.118771 -80.062454 -5.000208 10.281033 9.816846 -25.000000 12.455700 -10.765184 24.338467 -12.602449 -78.179581 -0.086127 -2.583385 -10.740231 45.719204 -7.003819 -10.487027 25.000000 12.291493 12.678974 -14.953545 -12.565279 89.964569 -0.181692 -3.136640 -56.575462 -82.312500 58.378536 -3.145177 12.556755 29.975647 3.282979 -5.307618 -0.571545 7.864306 0.625640 -4.798636 -4.905242 -1.459950 -14.337450 5.585250 5.243076 0.402169 2.277451 -12.996551 2.433455 
-0.217402 53.345142 -0.015797 -2.646484 2.451172 -134.941391 19.446804 0.998159 0.562686 -12.427364 0.623760 -0.836271 50.890343 10.202230 3.118771 -79.745598 -5.219451 10.699097 9.816846 -25.000000 12.455700 -10.901417 23.953773 -12.738495 -78.531609 -0.092480 -2.744077 -11.225915 45.428318 -7.405358 -10.441880 25.000000 12.240915 12.972368 -14.828699 -12.557454 89.964569 -0.181692 -3.136640 -53.681984 -82.174347 55.449635 -2.998555 12.429790 30.174074 2.414019 -5.297994 -0.488567 8.341112 0.145590 -4.784093 -5.066737 -1.424943 -14.843701 5.055263 5.261867 0.514488 2.453819 -12.640582 2.008302 
-0.245613 53.319832 0.051860 -3.007813 2.626953 -134.970703 19.446804 0.998159 0.562686 -12.428403 0.799538 -0.816722 50.890343 10.202230 3.118771 -79.724976 -5.064558 10.599714 9.816846 -25.000000 12.455700 -10.654295 23.444202 -12.911448 -78.880112 -0.265071 -2.670210 -11.361362 45.202122 -7.561015 -10.441880 25.000000 12.240915 13.700306 -15.368802 -13.282869 89.785675 -0.008528 -3.125972 -49.310436 -81.890762 51.860268 -3.330478 12.157550 29.955467 2.226800 -5.273731 -0.453429 8.360364 0.489327 -5.098330 -5.446080 -1.433720 -14.677096 5.767669 5.428177 0.082524 2.185668 -12.391809 1.507976 
